PathFileType	4	(X/Y/Z)	c:/Users/goper/Files/vsCode/490R/osim_files/C05/C05_SSWS_01.trc
DataRate	CameraRate	NumFrames	NumMarkers	Units                	OrigDataRate	OrigDataStartFrame	OrigNumFrames
250.00	250.00	5	36	mm	250.0	2456	3929
                Frame#	Time	LPSIS			LASIS			LTH1			LTH2			LTH3			LTH4			LLFE			LMFE			LSH1			LSH2			LSH3			LSH4			LLMAL			LMMAL			LCAL			LMTP5			LTOE			LMTP1			RPSIS			RASIS			RTH1			RTH2			RTH3			RTH4			RLFE			RMFE			RSH1			RSH2			RSH3			RSH4			RLMAL			RMMAL			RCAL			RMTP1			RTOE			RMTP5		
		X1	Y1	Z1	X2	Y2	Z2	X3	Y3	Z3	X4	Y4	Z4	X5	Y5	Z5	X6	Y6	Z6	X7	Y7	Z7	X8	Y8	Z8	X9	Y9	Z9	X10	Y10	Z10	X11	Y11	Z11	X12	Y12	Z12	X13	Y13	Z13	X14	Y14	Z14	X15	Y15	Z15	X16	Y16	Z16	X17	Y17	Z17	X18	Y18	Z18	X19	Y19	Z19	X20	Y20	Z20	X21	Y21	Z21	X22	Y22	Z22	X23	Y23	Z23	X24	Y24	Z24	X25	Y25	Z25	X26	Y26	Z26	X27	Y27	Z27	X28	Y28	Z28	X29	Y29	Z29	X30	Y30	Z30	X31	Y31	Z31	X32	Y32	Z32	X33	Y33	Z33	X34	Y34	Z34	X35	Y35	Z35	X36	Y36	Z36

2456	9.82000	259.47311	1050.41162	337.75351	57.59897	1016.13806	390.31036	169.60332	699.04150	426.55270	161.75960	637.88080	414.28580	93.04416	703.11658	417.67154	95.61211	642.64435	407.32736	126.76147	534.14227	385.65680	140.15565	532.01245	270.47507	242.26627	367.98752	390.59320	243.90727	324.30042	383.11215	179.49242	357.27838	395.40402	191.30400	316.02676	386.82132	259.01498	103.43678	341.12292	232.80360	111.93389	257.77017	320.84274	76.45821	290.42093	125.96132	39.04841	376.11081	85.04381	60.83477	314.31943	104.80466	42.26622	268.30682	260.83524	1053.11426	228.57268	71.67241	1022.39178	161.67923	-18.54740	723.77808	93.82534	-48.29072	670.01923	103.15151	45.61958	684.57361	95.65320	6.59030	635.24164	107.15470	0.00000	0.00000	0.00000	-68.48556	573.62769	118.55933	45.20797	448.16220	103.13179	56.51866	401.22522	105.33073	-12.12610	424.71078	102.32554	6.65465	382.21765	105.34635	120.86510	172.01463	131.95746	88.94010	169.47604	214.31097	186.94441	157.35551	186.75005	-9.76090	63.97529	191.56714	-31.44619	85.53023	142.50333	28.61298	71.03838	85.17382
2457	9.82400	255.49753	1050.28772	337.43463	53.59051	1015.91266	390.26932	167.38158	699.18359	426.54886	159.60962	637.91278	414.28906	90.57371	702.77002	417.55963	93.36699	642.42694	407.29111	125.38153	533.98126	385.92474	138.69484	531.81714	270.65829	241.54982	368.18372	390.90466	243.16962	324.47949	383.22632	178.77094	357.25925	395.54474	190.58655	316.01620	386.97726	258.82690	103.55769	341.15182	232.62877	112.05104	257.77924	320.70050	76.61140	290.44006	125.91504	38.98041	376.12445	84.97180	60.73264	314.35165	104.72071	42.21761	268.33310	256.63000	1052.99902	228.26587	67.36406	1022.36438	161.62193	-23.76855	724.46155	93.84505	-53.53212	670.75305	103.32339	40.35306	685.03986	95.27988	1.17388	635.80579	106.95646	0.00000	0.00000	0.00000	-73.95223	574.37305	118.64355	37.51677	446.29794	102.77798	47.72275	399.19562	104.87432	-20.28822	424.19742	102.01048	-2.54334	381.30746	104.89857	106.96887	168.51756	131.27817	74.81304	166.42368	213.59274	172.80960	152.28110	186.11728	-26.25861	63.35327	190.32057	-47.35984	85.55650	141.33240	12.27018	70.00449	83.82299
2458	9.82800	251.53279	1050.16150	337.12531	49.71419	1015.58514	390.23837	164.95999	699.20862	426.47449	157.54134	637.95612	414.31995	88.15207	702.44830	417.45584	91.30850	642.11957	407.41687	124.02238	533.83569	386.15622	137.25761	531.61566	270.81479	240.56020	368.30688	390.77158	242.52646	324.67395	383.28641	178.04880	357.25186	395.69745	189.89958	316.02332	387.07391	258.67322	103.69918	341.15381	232.45279	112.13866	257.76904	320.62900	76.82467	290.44498	125.84126	38.89264	376.13068	84.86573	60.64903	314.39435	104.70806	42.22717	268.34448	252.42081	1052.87195	227.99304	63.84479	1022.11700	161.70000	-29.96098	724.87115	94.51453	-58.75229	671.44482	103.42693	35.15863	685.39709	94.93978	-4.15653	636.29138	106.80206	0.00000	0.00000	0.00000	-79.30788	575.03064	118.71301	29.97312	444.39529	102.37183	39.05539	397.07562	104.42783	-28.45629	423.66260	101.64944	-11.51028	380.34665	104.72216	92.81491	165.01816	130.54778	60.57125	163.38069	212.84201	158.32381	147.11902	185.43907	-42.66797	62.76713	189.16060	-63.16731	85.65698	140.23210	-3.84731	68.56628	82.81062
2459	9.83200	247.49715	1049.95374	336.81775	45.78251	1015.34985	390.21240	162.55484	699.24512	426.44739	155.51993	638.03101	414.42148	85.73232	702.06775	417.35461	89.22763	641.88605	407.45868	122.55556	533.63037	386.40927	135.85330	531.45282	270.98190	239.74043	368.46039	390.83972	241.75395	324.83008	383.37964	177.31285	357.24210	395.88904	189.29062	316.02048	387.20435	258.53281	103.84403	341.16757	232.27412	112.25428	257.80121	320.51041	76.99998	290.46066	125.83723	38.84644	376.19324	84.81861	60.54763	314.41830	104.65430	42.15905	268.37283	248.23297	1052.71777	227.64526	57.38165	1022.87634	160.41479	-33.82710	725.44885	93.89727	-63.82880	671.95862	103.57441	30.07143	685.67841	94.65060	-9.14509	636.74725	106.57150	0.00000	0.00000	0.00000	-84.51716	575.53485	118.81260	22.32096	442.34464	102.00050	30.34811	394.86426	104.00324	-36.48592	423.01340	101.35813	-20.55486	379.35858	104.30927	78.71845	161.63348	129.91931	46.32044	160.47646	212.15532	143.81798	142.07201	184.78830	-59.20677	62.32512	188.08519	-79.26405	85.89046	139.22301	-20.73149	67.89428	81.70563
2460	9.83600	243.69644	1049.83228	336.48010	41.75541	1015.04297	390.14032	160.40399	699.46838	426.64246	153.36543	638.09802	414.44827	84.04794	702.29425	418.32141	87.18425	641.58228	407.44824	121.14687	533.45837	386.64529	134.44084	531.31995	271.14151	238.95430	368.69083	390.93536	241.10944	325.03918	383.49359	176.48935	357.18570	395.98004	188.56976	316.04086	387.31668	258.36780	103.99033	341.19272	232.10271	112.38715	257.83270	320.37109	77.18359	290.49173	125.81317	38.80365	376.22330	84.75935	60.47332	314.44040	104.57668	42.13505	268.39316	243.95853	1052.51404	227.29369	55.48952	1022.22882	160.73520	-39.85522	725.68225	94.53416	-68.80003	672.33795	103.66801	25.13092	685.90723	94.26134	-14.19010	637.02338	106.40549	0.00000	0.00000	0.00000	-89.56364	576.02057	118.87086	14.83845	440.30588	101.67310	21.71210	392.63345	103.58204	-44.41925	422.36072	100.94299	-29.46171	378.37872	103.84714	64.57579	158.33556	129.25072	32.03497	157.70450	211.49147	129.01801	137.00888	184.16495	-75.74191	61.99488	187.02325	-95.45133	86.59517	137.03267	-36.96407	67.21329	80.90544
